# xmcd
#
# Track frame offsets:
#	150
#	40214
#	57918
#	76974
#	91672
#	103218
#	121003
#	136926
#	151121
#	173533
#
# Disc length: 2564 seconds
# Revision: 0
# Processed by: cddbd v1.5.2PL0 Copyright (c) Steve Scherf et al.
# Submitted via: dBpowerAMP V12.0
#
DISCID=6c0a020a
DTITLE=Lorrie Morgan - Merry Christmas From London
DYEAR=1900
DGENRE=
TTITLE0=A Christmas Festival (Medley)
TTITLE1=Little Snow Girl
TTITLE2=Up On Santa Claus Mountain
TTITLE3=O Holy Night
TTITLE4=Let It Snow! Let It Snow!
TTITLE5=Blue Snowfall
TTITLE6=Toyland
TTITLE7=Sleigh Ride
TTITLE8=Ava Maria
TTITLE9=My Favorite Things
EXTD=
EXTT0=
EXTT1=
EXTT2=
EXTT3=
EXTT4=
EXTT5=
EXTT6=
EXTT7=
EXTT8=
EXTT9=
PLAYORDER=
